<svg xmlns="http://www.w3.org/2000/svg" viewBox="0 0 64 64">
  <defs>
    <linearGradient id="g" x1="0" x2="1" y1="0" y2="1">
      <stop offset="0%" stop-color="#fecdd3"/>
      <stop offset="100%" stop-color="#fda4af"/>
    </linearGradient>
  </defs>
  <rect width="64" height="64" rx="12" fill="url(#g)"/>
  <path fill="#be123c" d="M32 51c-.9 0-1.7-.3-2.4-.9C23.3 46 18.6 41.9 15 38c-3.6-3.9-5.8-8.1-5.8-12.7C9.2 18.6 14.1 14 20.1 14c3.8 0 7.3 1.8 9.5 4.6 2.3-2.8 5.7-4.6 9.5-4.6 6 0 10.9 4.6 10.9 11.3 0 4.6-2.2 8.8-5.8 12.7-3.6 3.9-8.3 8-14.6 12.1-.7.5-1.6.9-2.6.9z"/>
</svg>
